# xmcd
#
# Track frame offsets: 
#        150
#        20287
#        33873
#        51064
#        65714
#        82499
#        100654
#        119419
#        134024
#        150586
#        163910
#
# Disc length: 2442 seconds
#
# Revision: 0
# Processed by: cddbd v1.5.2PL0 Copyright (c) Steve Scherf et al.
# Submitted via: ExactAudioCopy v0.99pb3
#
DISCID=9509880b
DTITLE=Micky and the Motorcars - Raise My Glass
DYEAR=2011
DGENRE=Folk/Rock
TTITLE0=Raise My Glass
TTITLE1=A Thousand Tears
TTITLE2=Any Longer Any More
TTITLE3=How Far I'll Go
TTITLE4=Far From You
TTITLE5=Longer Walk In The Rain
TTITLE6=Never Been Out West
TTITLE7=Big Casino
TTITLE8=Odessa Snow
TTITLE9=Faded And Gone
TTITLE10=St. Lucy's Eyes
EXTD=
EXTT0=
EXTT1=
EXTT2=
EXTT3=
EXTT4=
EXTT5=
EXTT6=
EXTT7=
EXTT8=
EXTT9=
EXTT10=
PLAYORDER=
